<svg width="46" height="54" viewBox="0 0 46 54" fill="none" xmlns="http://www.w3.org/2000/svg">
<g clip-path="url(#clip0_1_31)">
<path d="M36.6758 21.123C41.832 21.123 45.2695 17.6367 45.2695 12.3828C45.2695 3.64258 37.8281 0 32.6621 0C31.7441 0 31.1582 0.322266 31.1582 0.947266C31.1582 1.19141 31.2656 1.44531 31.4707 1.67969C32.6328 3.06641 33.7949 4.7168 33.8144 6.64062C33.8144 7.08008 33.7656 7.4707 33.4531 8.01758L33.9414 7.91992C33.502 6.48438 32.3203 5.46875 31.2852 5.46875C30.8848 5.46875 30.6113 5.76172 30.6113 6.20117C30.6113 6.45508 30.6797 7.05078 30.6797 7.48047C30.6797 9.66797 29 10.9473 29 14.4727C29 18.4668 32.0566 21.123 36.6758 21.123ZM36.7734 19.7559C32.9453 19.7559 30.377 17.627 30.377 14.4727C30.377 11.2695 32.1055 10.1855 32.1055 7.64648C32.1055 7.26562 32.0273 6.92383 31.9395 6.63086L31.7148 7.02148C32.5156 7.5 33.0625 8.36914 33.375 9.70703C33.4141 9.91211 33.5313 10.0098 33.6777 10.0098C34.4688 10.0098 35.0352 8.04688 35.0352 6.80664C35.0352 4.56055 34.0684 2.43164 32.4961 0.976562L32.2324 1.28906C39.2539 1.43555 43.834 6.09375 43.834 12.334C43.834 16.7676 41.002 19.7559 36.7734 19.7559ZM36.9004 18.3789C39.2246 18.3789 40.3574 16.6699 40.3574 14.7363C40.3574 12.832 39.2441 10.7031 37.1055 9.69727C37.0176 9.66797 36.959 9.7168 36.9688 9.80469C37.1348 11.4062 36.8906 12.8906 36.3731 13.5938C36.1289 13.0273 35.8359 12.5391 35.3867 12.1387C35.3184 12.0801 35.2598 12.1094 35.2402 12.1973C35.084 13.3008 33.8633 13.916 33.8633 15.6348C33.8633 17.2754 35.0742 18.3789 36.9004 18.3789Z" fill="black" fill-opacity="0.85"/>
</g>
<g clip-path="url(#clip1_1_31)">
<path d="M24.3164 37.9199V50.3809C24.3164 51.4648 23.7012 52.1582 22.7051 52.1582H17.0724C17.3795 51.6623 17.5488 51.0538 17.5488 50.3809V36.1426H22.7051C23.7012 36.1426 24.3164 36.8359 24.3164 37.9199ZM20.1074 46.8652C19.8926 46.8652 19.7656 47.0117 19.7656 47.2168V48.7793C19.7656 48.9844 19.8926 49.1211 20.1074 49.1211H21.7285C21.9336 49.1211 22.0703 48.9844 22.0703 48.7793V47.2168C22.0703 47.0117 21.9336 46.8652 21.7285 46.8652H20.1074ZM20.1074 43.0273C19.8926 43.0273 19.7656 43.1641 19.7656 43.3691V44.9316C19.7656 45.1367 19.8926 45.2734 20.1074 45.2734H21.7285C21.9336 45.2734 22.0703 45.1367 22.0703 44.9316V43.3691C22.0703 43.1641 21.9336 43.0273 21.7285 43.0273H20.1074ZM20.1074 39.1797C19.8926 39.1797 19.7656 39.3164 19.7656 39.5215V41.084C19.7656 41.2891 19.8926 41.4355 20.1074 41.4355H21.7285C21.9336 41.4355 22.0703 41.2891 22.0703 41.084V39.5215C22.0703 39.3164 21.9336 39.1797 21.7285 39.1797H20.1074Z" fill="black" fill-opacity="0.85"/>
<path d="M1.32812 50.3809C1.32812 51.4648 1.95312 52.1582 2.94922 52.1582H14.5996C15.5859 52.1582 16.2109 51.4648 16.2109 50.3809V33.1152C16.2109 32.0313 15.5859 31.3379 14.5996 31.3379H2.94922C1.95312 31.3379 1.32812 32.0313 1.32812 33.1152V50.3809ZM5.39062 50.5859V47.4121C5.39062 46.9629 5.68359 46.6699 6.14258 46.6699H11.4941C11.9531 46.6699 12.2363 46.9629 12.2363 47.4121V50.5859H5.39062ZM5.06836 36.582V34.6875C5.06836 34.4434 5.22462 34.2676 5.47853 34.2676H7.42188C7.67578 34.2676 7.84181 34.4434 7.84181 34.6875V36.582C7.84181 36.8359 7.67578 37.002 7.42188 37.002H5.47853C5.22462 37.002 5.06836 36.8359 5.06836 36.582ZM9.78516 36.582V34.6875C9.78516 34.4434 9.94141 34.2676 10.1953 34.2676H12.1387C12.3926 34.2676 12.5586 34.4434 12.5586 34.6875V36.582C12.5586 36.8359 12.3926 37.002 12.1387 37.002H10.1953C9.94141 37.002 9.78516 36.8359 9.78516 36.582ZM5.06836 40.5664V38.6719C5.06836 38.4277 5.22462 38.252 5.47853 38.252H7.42188C7.67578 38.252 7.84181 38.4277 7.84181 38.6719V40.5664C7.84181 40.8203 7.67578 40.9863 7.42188 40.9863H5.47853C5.22462 40.9863 5.06836 40.8203 5.06836 40.5664ZM9.78516 40.5664V38.6719C9.78516 38.4277 9.94141 38.252 10.1953 38.252H12.1387C12.3926 38.252 12.5586 38.4277 12.5586 38.6719V40.5664C12.5586 40.8203 12.3926 40.9863 12.1387 40.9863H10.1953C9.94141 40.9863 9.78516 40.8203 9.78516 40.5664ZM5.06836 44.5508V42.6562C5.06836 42.4023 5.22462 42.2363 5.47853 42.2363H7.42188C7.67578 42.2363 7.84181 42.4023 7.84181 42.6562V44.5508C7.84181 44.7949 7.67578 44.9707 7.42188 44.9707H5.47853C5.22462 44.9707 5.06836 44.7949 5.06836 44.5508ZM9.78516 44.5508V42.6562C9.78516 42.4023 9.94141 42.2363 10.1953 42.2363H12.1387C12.3926 42.2363 12.5586 42.4023 12.5586 42.6562V44.5508C12.5586 44.7949 12.3926 44.9707 12.1387 44.9707H10.1953C9.94141 44.9707 9.78516 44.7949 9.78516 44.5508Z" fill="black" fill-opacity="0.85"/>
</g>
<g clip-path="url(#clip2_1_31)">
<path d="M17 26.0566C17 26.5352 17.4004 26.9258 17.8691 26.9258H24.1875V33.2441C24.1875 33.7129 24.5781 34.1133 25.0566 34.1133C25.5352 34.1133 25.9355 33.7129 25.9355 33.2441V26.9258H32.2441C32.7129 26.9258 33.1133 26.5352 33.1133 26.0566C33.1133 25.5781 32.7129 25.1777 32.2441 25.1777H25.9355V18.8691C25.9355 18.4004 25.5352 18 25.0566 18C24.5781 18 24.1875 18.4004 24.1875 18.8691V25.1777H17.8691C17.4004 25.1777 17 25.5781 17 26.0566Z" fill="black" fill-opacity="0.85"/>
</g>
<defs>
<clipPath id="clip0_1_31">
<rect width="16.6309" height="22.9004" fill="white" transform="translate(29)"/>
</clipPath>
<clipPath id="clip1_1_31">
<rect width="26.0156" height="23.4863" fill="white" transform="translate(0 30)"/>
</clipPath>
<clipPath id="clip2_1_31">
<rect width="16.4746" height="16.123" fill="white" transform="translate(17 18)"/>
</clipPath>
</defs>
</svg>
